PathFileType	4	(X/Y/Z)	C:/Users/opensim2020/Desktop/walking_exp_matlab/subject03_walking08_straight_04.trc	
DataRate	CameraRate	NumFrames	NumMarkers	Units	OrigDataRate	OrigDataStartFrame	OrigNumFrames	
100.00	100.00	9	51	mm	100.00	3427	303	
Frame#	Time	LFHD			RFHD			LBHD			RBHD			C7			T10			CLAV			STRN			RBAK			LSHO			LUPA			LELB			LFRM			LWRA			LWRB			LFIN			RSHO			RUPA			RELB			RFRM			RWRA			RWRB			RFIN			LASI			RASI			LPSI			RPSI			LTHI			LKNE			LTIB			LANK			LHEE			LTOE			RTHI			RKNE			RTIB			RANK			RHEE			RTOE			*39			*40			*41			*42			*43			*44			*45			*46			*47			*48			*49			*50			
		X1	Y1	Z1	X2	Y2	Z2	X3	Y3	Z3	X4	Y4	Z4	X5	Y5	Z5	X6	Y6	Z6	X7	Y7	Z7	X8	Y8	Z8	X9	Y9	Z9	X10	Y10	Z10	X11	Y11	Z11	X12	Y12	Z12	X13	Y13	Z13	X14	Y14	Z14	X15	Y15	Z15	X16	Y16	Z16	X17	Y17	Z17	X18	Y18	Z18	X19	Y19	Z19	X20	Y20	Z20	X21	Y21	Z21	X22	Y22	Z22	X23	Y23	Z23	X24	Y24	Z24	X25	Y25	Z25	X26	Y26	Z26	X27	Y27	Z27	X28	Y28	Z28	X29	Y29	Z29	X30	Y30	Z30	X31	Y31	Z31	X32	Y32	Z32	X33	Y33	Z33	X34	Y34	Z34	X35	Y35	Z35	X36	Y36	Z36	X37	Y37	Z37	X38	Y38	Z38	X39	Y39	Z39	X40	Y40	Z40	X41	Y41	Z41	X42	Y42	Z42	X43	Y43	Z43	X44	Y44	Z44	X45	Y45	Z45	X46	Y46	Z46	X47	Y47	Z47	X48	Y48	Z48	X49	Y49	Z49	X50	Y50	Z50	X51	Y51	Z51	

76	0.750	1490.62610	688.25854	1604.69092	1360.00842	713.23627	1609.77319	1510.99902	818.76208	1572.82776	1381.73267	838.50916	1577.22437	1457.90430	872.68439	1413.37305	1460.12134	913.82037	1098.78210	1440.73096	755.21588	1330.83679	1444.44080	716.00110	1165.77283	1372.95020	944.10455	1235.51831	1600.81592	777.19360	1368.02368	1672.50671	758.76471	1174.14478	1683.04822	728.04016	1055.17944	1667.45764	661.48163	945.48145	1621.30078	605.12628	848.16907	1673.42297	621.95813	838.78851	1652.92151	573.34235	773.49481	1288.39270	823.51166	1353.42944	1222.58044	842.10950	1129.10071	1209.52368	833.01086	1016.32599	1209.38672	820.29883	879.48511	1242.38672	786.73395	784.46625	1203.85889	825.63257	779.12756	1214.21729	803.81592	707.68134	1570.60828	747.12103	929.08929	1330.69739	754.54211	930.83264	1522.10254	909.82727	959.01910	1373.50146	914.10364	963.44226	1607.22363	854.35321	637.59802	1575.99731	896.71008	463.53329	1576.25500	1016.05719	302.11938	1536.46362	1111.23999	112.68382	1499.15503	1161.02551	93.73712	1509.27734	979.66583	33.70969	1289.92480	769.90869	640.57397	1326.21423	706.93298	471.01651	1321.58289	703.73950	284.73801	1365.22131	665.01422	71.48580	1421.47498	699.72711	39.00464	1370.85522	520.12360	39.47425																																				 
77	0.760	1489.18787	680.27496	1606.09180	1358.58325	705.03168	1611.20361	1509.34460	810.75775	1574.03650	1380.07239	830.30579	1578.43140	1456.06042	864.29816	1414.49902	1459.15686	904.98901	1099.91174	1439.28064	746.71289	1332.23352	1443.19128	707.18610	1167.22815	1371.15442	935.23999	1236.51892	1599.30603	769.05634	1369.52869	1670.44678	752.11780	1175.14758	1680.63733	722.55804	1055.66772	1665.94409	658.31976	944.45874	1620.62268	603.86188	845.70087	1672.68420	621.29156	836.87665	1652.74890	574.09106	770.36658	1286.81885	814.86823	1354.63965	1221.15894	832.33405	1130.22046	1208.34985	822.86737	1017.42017	1207.96838	810.41943	880.65912	1240.92505	777.24078	785.57208	1202.43396	815.65790	780.23688	1212.53516	794.20270	708.75806	1569.29504	737.62634	929.81061	1329.52551	745.01471	933.10065	1521.22827	900.34790	959.82367	1372.65771	904.87146	965.40894	1606.56042	844.86591	638.15021	1576.51782	887.77875	464.48865	1576.41370	1009.51740	304.40112	1536.63123	1107.86707	116.56569	1499.35095	1158.15967	99.29620	1509.26428	979.20770	33.67739	1288.60608	762.32727	642.31531	1325.47375	700.67584	472.08157	1321.05725	700.09998	285.35590	1365.28186	664.61346	71.64746	1421.15442	699.79193	39.01616	1372.67053	519.47955	38.79808																																				 
78	0.770	1487.76855	672.23090	1607.60254	1357.09314	696.74475	1612.65894	1507.63623	802.71771	1575.39001	1378.31604	822.01398	1579.74353	1454.29871	856.06604	1415.79480	1458.22595	896.17621	1101.14001	1437.85938	738.20697	1333.82983	1442.01587	698.28510	1168.87402	1369.32495	926.37390	1237.66736	1597.75342	761.02313	1371.25525	1668.35059	745.44708	1176.43835	1678.14734	717.19080	1056.48621	1664.46704	655.27466	943.71979	1620.03687	602.94672	843.28943	1672.10693	620.93976	835.18036	1652.78748	575.22833	767.36908	1285.36328	806.22540	1356.13586	1219.71716	822.53156	1131.55627	1207.03137	812.71259	1018.88898	1206.47473	800.46521	882.07538	1239.50952	767.39941	786.91986	1200.68506	805.77295	781.71301	1210.81909	784.35461	710.16193	1567.82129	728.23315	930.75250	1328.18774	735.74658	935.45697	1520.29211	890.84045	960.76251	1371.81897	895.63983	967.36298	1606.08557	835.14069	638.81238	1576.31018	877.12378	464.33627	1576.44470	1002.23700	306.62393	1537.06934	1104.32288	121.15957	1499.45874	1154.80139	105.32598	1509.17798	978.75403	33.66925	1287.23352	754.34119	644.17999	1324.81470	694.71637	473.20560	1320.68420	696.63525	286.02979	1365.41479	664.14722	71.87080	1421.02307	699.85083	39.04017	1373.06323	519.26917	38.43748																																				 
79	0.780	1486.30151	664.21600	1609.19263	1355.60107	688.58618	1614.17566	1505.98022	794.75330	1576.87244	1376.67065	813.86664	1581.17957	1452.52197	847.81561	1417.14587	1457.12305	887.41650	1102.43933	1436.48914	729.72888	1335.43567	1440.78162	689.59265	1170.52173	1367.41895	917.51758	1238.96643	1596.24353	752.99078	1373.14392	1666.29675	738.75098	1177.92944	1675.76721	711.84637	1057.53186	1663.06714	652.39960	943.22418	1619.77319	602.18268	841.17181	1671.71985	620.83185	833.83990	1653.03723	576.96283	764.62708	1283.73425	797.17761	1357.72974	1218.24597	812.66425	1133.04443	1205.77075	802.45630	1020.40710	1204.92358	790.20679	883.72595	1237.83386	757.49329	788.30627	1198.87476	795.54175	783.31427	1209.06934	774.36945	711.60919	1566.21619	718.77020	931.86951	1326.70740	726.35107	937.78076	1519.36462	881.34271	961.97076	1370.94128	886.38544	969.24707	1605.52515	824.86279	639.41486	1577.06189	866.39459	464.77475	1576.65271	994.31775	309.04474	1537.11072	1099.90955	125.85103	1499.48938	1150.78040	111.87466	1509.08240	978.31525	33.79222	1286.08386	746.21790	645.83844	1324.05933	689.35291	474.19846	1320.03235	693.70038	286.58905	1365.46350	664.09241	72.03973	1420.96265	699.85181	39.08875	1372.74561	519.24927	38.17530																																				 
80	0.790	1484.87524	656.26776	1610.76221	1354.13391	680.38593	1615.65125	1504.37646	786.82159	1578.40979	1374.93408	805.62335	1582.64624	1450.75830	839.57990	1418.48547	1455.97644	878.64471	1103.78333	1435.06421	721.11499	1337.00317	1439.61694	680.78510	1172.26208	1365.36829	908.51910	1240.14124	1594.74878	745.05072	1375.07544	1664.20947	731.95831	1179.56433	1673.40955	706.58850	1058.77063	1661.84827	649.72198	942.88361	1619.64233	601.42419	839.22754	1671.50513	620.90216	832.66327	1653.51831	578.89154	762.02856	1282.21790	788.24310	1359.24402	1216.69421	802.85315	1134.65613	1204.19531	792.25476	1022.10577	1203.24524	779.81982	885.44354	1236.17212	747.15411	789.95886	1197.03064	785.06970	784.97485	1207.19202	764.37079	713.36957	1564.35730	709.71454	933.10449	1325.17114	717.24829	939.88318	1518.24390	871.95563	963.31689	1369.92896	877.10193	971.00885	1604.96643	814.26947	639.96051	1577.54211	854.24023	464.80933	1577.15735	985.79224	311.58990	1537.14331	1095.10291	130.92177	1499.08984	1146.07715	118.89162	1508.77588	977.59003	33.75274	1285.05603	738.01556	647.52734	1323.09607	684.68872	474.93170	1319.31030	691.58551	286.90234	1365.47766	664.04004	72.09357	1420.86780	699.87927	39.10464	1372.74756	519.16559	37.99065																																				 
81	0.800	1483.40747	648.35083	1612.25769	1352.69983	672.25757	1616.99329	1502.71912	778.89398	1579.85986	1373.29492	797.50073	1583.93835	1448.97083	831.37854	1419.74036	1454.64893	869.82855	1105.02734	1433.79834	712.69098	1338.59485	1438.42688	672.03070	1173.81482	1363.35388	899.58038	1241.41614	1593.22595	737.15771	1376.92651	1662.20874	725.15729	1181.17798	1671.22827	701.43060	1059.95239	1660.83276	647.04626	942.66577	1619.71948	600.95361	837.39587	1671.46606	621.13971	831.74335	1654.20544	581.20844	759.53790	1280.81201	779.42212	1360.85107	1215.04504	793.08508	1136.24438	1202.73511	781.98419	1023.74585	1201.43213	769.44238	887.18622	1234.32898	736.70520	791.73810	1195.00427	774.42285	786.72394	1205.29297	753.64746	714.81946	1562.71057	700.43250	934.38904	1323.63000	708.11163	941.82410	1516.90649	862.63885	964.68536	1368.64502	867.77118	972.64294	1604.78577	803.30743	640.48926	1578.57617	841.48541	464.82947	1577.45532	976.18018	313.94330	1537.28174	1089.95996	136.55228	1498.47400	1140.48669	126.24928	1508.46899	976.86224	33.92699	1284.00403	731.69806	648.74249	1321.91858	680.57666	475.36179	1318.77405	689.67145	287.10019	1365.52588	664.01111	72.16290	1420.83386	699.88434	39.15592	1372.90430	519.08423	37.84877																																				 
82	0.810	1482.02173	640.51886	1613.66016	1351.28406	664.21735	1618.23059	1501.19739	771.11505	1581.26147	1371.72473	789.45612	1585.16907	1447.28479	823.14478	1420.85718	1453.09631	861.15247	1106.20447	1432.57629	704.24988	1339.99548	1437.31580	663.26294	1175.31677	1361.31128	890.61298	1242.50781	1591.76526	729.36328	1378.70972	1660.33350	718.34308	1182.77136	1669.19775	696.35010	1061.16040	1659.98279	644.39929	942.51337	1619.95679	600.61017	835.63843	1671.60486	621.43341	830.97528	1655.16260	584.01257	757.23474	1279.40723	770.53479	1362.33643	1213.42957	783.24255	1137.76624	1200.91248	771.89307	1025.42529	1199.55359	758.81201	888.90057	1232.68445	726.20868	793.33820	1192.91199	763.55640	788.41681	1203.39502	742.83508	716.38782	1560.95544	691.50989	935.71289	1322.10962	698.98370	943.39539	1515.38599	853.52405	966.07184	1367.12170	858.50110	974.17023	1604.66089	792.12628	640.86743	1579.88623	828.00226	464.66492	1577.91760	965.99506	316.25549	1537.00452	1083.65967	142.00774	1497.57593	1133.88940	133.82893	1508.08997	975.82684	34.08020	1283.81409	724.81427	649.70605	1320.69031	676.67053	475.53775	1318.27734	687.96783	287.25272	1365.70154	663.93866	72.22069	1420.86475	699.81927	39.17517	1372.93372	518.94006	37.67126																																				 
83	0.820	1480.68054	632.81555	1614.93201	1349.89966	656.30841	1619.24609	1499.73096	763.40240	1582.45459	1370.15649	781.53943	1586.17004	1445.57703	815.02136	1421.78516	1451.35828	852.50653	1107.18945	1431.39221	695.84875	1341.31555	1436.30188	654.47974	1176.71533	1359.27466	881.67847	1243.47388	1590.34314	721.70483	1380.25549	1658.62463	711.63312	1184.19641	1667.35217	691.26538	1062.19934	1659.26025	641.87482	942.37939	1620.45471	600.13617	833.93463	1671.87085	621.87610	830.21783	1656.19983	586.69525	754.94373	1278.02563	761.67188	1363.70703	1211.69275	773.46753	1139.18347	1199.20630	761.64063	1026.90344	1197.63464	748.01813	890.47540	1230.44446	714.96436	794.98419	1190.82568	752.41791	789.94897	1201.44104	731.75458	717.85175	1559.28333	682.65900	937.03857	1320.59363	689.96539	944.57318	1513.62512	844.62665	967.31207	1365.36902	849.27686	975.47009	1604.68665	780.60022	641.05457	1581.63135	814.22479	464.35806	1578.59827	954.77637	318.40176	1536.75122	1076.34229	147.22136	1496.69824	1126.33508	141.74751	1507.85474	974.80884	34.43988	1282.53638	718.67126	650.45374	1319.44543	672.70691	475.56024	1317.83777	685.96930	287.30334	1365.85669	663.84259	72.20022	1420.92676	699.77820	39.12002	1373.00159	518.80280	37.51719																																				 
84	0.830	1479.35107	625.21429	1616.06201	1348.56213	648.54919	1620.16418	1498.24207	755.72583	1583.44922	1368.62622	773.63184	1586.91919	1443.92578	806.92993	1422.51074	1449.39124	843.98779	1107.93933	1430.25037	687.50543	1342.34973	1435.24695	645.90918	1177.87695	1357.19836	872.74469	1244.19446	1588.95251	714.10828	1381.50757	1656.99744	705.02728	1185.43542	1665.70667	686.11639	1063.08569	1658.74463	639.18097	942.05304	1621.18274	599.56403	832.21606	1672.36926	622.12897	829.49731	1657.41040	589.51416	752.73871	1276.73389	752.68066	1364.79980	1209.89941	763.58075	1140.42139	1197.18848	751.52057	1028.27039	1195.57532	737.19519	891.88898	1228.38696	703.84863	796.55780	1188.56104	741.20660	791.40179	1199.28040	720.40826	719.21857	1557.67688	674.03308	938.26184	1319.11902	681.00354	945.30872	1511.74561	836.03381	968.35413	1363.46643	840.19934	976.63928	1604.75354	768.91309	641.01678	1582.41589	799.01196	463.27859	1579.14783	942.85016	320.41974	1536.70349	1068.46729	153.07137	1496.02771	1117.81970	149.64496	1507.63477	973.42828	34.94607	1281.54065	712.68872	650.95709	1318.26050	668.49976	475.47256	1317.18958	683.70117	287.43030	1365.95874	663.72894	72.21136	1420.95300	699.77148	39.11132	1373.16150	518.71796	37.35962																																				 
